<mxfile host="app.diagrams.net" modified="2023-10-25T02:41:53.431Z" agent="Mozilla/5.0 (X11; Linux x86_64) AppleWebKit/537.36 (KHTML, like Gecko) Chrome/118.0.0.0 Safari/537.36" etag="1lIp2dXx2dW_-mux9HQf" version="22.0.7" type="google">
  <diagram name="Page-1" id="VhKvkFTFIss1DLVyL-U2">
    <mxGraphModel grid="1" page="1" gridSize="10" guides="1" tooltips="1" connect="1" arrows="1" fold="1" pageScale="1" pageWidth="850" pageHeight="1100" math="0" shadow="0">
      <root>
        <mxCell id="0" />
        <mxCell id="1" parent="0" />
        <mxCell id="95xaMMnpDpSrJ1xNedDM-3" value="Diagrama de Secuencia" style="text;html=1;strokeColor=none;fillColor=none;align=center;verticalAlign=middle;whiteSpace=wrap;rounded=0;strokeWidth=1;fontStyle=0;fontSize=14;" vertex="1" parent="1">
          <mxGeometry x="40" y="20" width="160" height="30" as="geometry" />
        </mxCell>
        <mxCell id="95xaMMnpDpSrJ1xNedDM-4" value="Ver Informacion de Participantes" style="text;html=1;strokeColor=none;fillColor=none;align=center;verticalAlign=middle;whiteSpace=wrap;rounded=0;strokeWidth=1;fontStyle=1;fontSize=18;" vertex="1" parent="1">
          <mxGeometry x="20" y="40" width="330" height="40" as="geometry" />
        </mxCell>
        <mxCell id="95xaMMnpDpSrJ1xNedDM-7" value="" style="group" connectable="0" vertex="1" parent="1">
          <mxGeometry x="15" y="360" width="190" height="60" as="geometry" />
        </mxCell>
        <mxCell id="95xaMMnpDpSrJ1xNedDM-5" value="Diagrama de Secuencia" style="text;html=1;strokeColor=none;fillColor=none;align=center;verticalAlign=middle;whiteSpace=wrap;rounded=0;strokeWidth=1;fontStyle=0;fontSize=14;" vertex="1" parent="95xaMMnpDpSrJ1xNedDM-7">
          <mxGeometry x="20" width="160" height="30" as="geometry" />
        </mxCell>
        <mxCell id="95xaMMnpDpSrJ1xNedDM-21" value="Flujo Normal" style="text;html=1;strokeColor=none;fillColor=none;align=center;verticalAlign=middle;whiteSpace=wrap;rounded=0;strokeWidth=1;fontStyle=0;fontSize=17;" vertex="1" parent="1">
          <mxGeometry x="50" y="80" width="160" height="30" as="geometry" />
        </mxCell>
        <mxCell id="95xaMMnpDpSrJ1xNedDM-40" value="" style="group" connectable="0" vertex="1" parent="1">
          <mxGeometry x="80" y="120" width="630" height="200" as="geometry" />
        </mxCell>
        <mxCell id="95xaMMnpDpSrJ1xNedDM-26" style="edgeStyle=orthogonalEdgeStyle;rounded=0;orthogonalLoop=1;jettySize=auto;html=1;dashed=1;endArrow=none;endFill=0;" edge="1" parent="95xaMMnpDpSrJ1xNedDM-40">
          <mxGeometry relative="1" as="geometry">
            <mxPoint x="569.6600000000001" y="200" as="targetPoint" />
            <mxPoint x="569.6600000000001" y="35" as="sourcePoint" />
          </mxGeometry>
        </mxCell>
        <mxCell id="95xaMMnpDpSrJ1xNedDM-25" style="edgeStyle=orthogonalEdgeStyle;rounded=0;orthogonalLoop=1;jettySize=auto;html=1;dashed=1;endArrow=none;endFill=0;" edge="1" parent="95xaMMnpDpSrJ1xNedDM-40">
          <mxGeometry relative="1" as="geometry">
            <mxPoint x="349.66" y="200" as="targetPoint" />
            <mxPoint x="349.66" y="35" as="sourcePoint" />
          </mxGeometry>
        </mxCell>
        <mxCell id="95xaMMnpDpSrJ1xNedDM-9" value="" style="shape=umlActor;verticalLabelPosition=bottom;verticalAlign=top;html=1;outlineConnect=0;" vertex="1" parent="95xaMMnpDpSrJ1xNedDM-40">
          <mxGeometry width="20" height="40" as="geometry" />
        </mxCell>
        <mxCell id="95xaMMnpDpSrJ1xNedDM-11" value="" style="rounded=0;whiteSpace=wrap;html=1;" vertex="1" parent="95xaMMnpDpSrJ1xNedDM-40">
          <mxGeometry x="5" y="50" width="10" height="150" as="geometry" />
        </mxCell>
        <mxCell id="95xaMMnpDpSrJ1xNedDM-23" style="edgeStyle=orthogonalEdgeStyle;rounded=0;orthogonalLoop=1;jettySize=auto;html=1;dashed=1;endArrow=none;endFill=0;" edge="1" parent="95xaMMnpDpSrJ1xNedDM-40" source="95xaMMnpDpSrJ1xNedDM-12">
          <mxGeometry relative="1" as="geometry">
            <mxPoint x="135" y="200" as="targetPoint" />
          </mxGeometry>
        </mxCell>
        <mxCell id="95xaMMnpDpSrJ1xNedDM-12" value=":PantallaInicioAdministradorIH" style="rounded=0;whiteSpace=wrap;html=1;fontSize=10;" vertex="1" parent="95xaMMnpDpSrJ1xNedDM-40">
          <mxGeometry x="60" y="5" width="150" height="30" as="geometry" />
        </mxCell>
        <mxCell id="95xaMMnpDpSrJ1xNedDM-27" style="edgeStyle=orthogonalEdgeStyle;rounded=0;orthogonalLoop=1;jettySize=auto;html=1;" edge="1" parent="95xaMMnpDpSrJ1xNedDM-40" source="95xaMMnpDpSrJ1xNedDM-13">
          <mxGeometry relative="1" as="geometry">
            <mxPoint x="350" y="65" as="targetPoint" />
          </mxGeometry>
        </mxCell>
        <mxCell id="95xaMMnpDpSrJ1xNedDM-33" value="VerParticipantes()" style="edgeLabel;html=1;align=center;verticalAlign=middle;resizable=0;points=[];" connectable="0" vertex="1" parent="95xaMMnpDpSrJ1xNedDM-27">
          <mxGeometry x="-0.0028" y="-1" relative="1" as="geometry">
            <mxPoint y="-2" as="offset" />
          </mxGeometry>
        </mxCell>
        <mxCell id="95xaMMnpDpSrJ1xNedDM-13" value="" style="rounded=0;whiteSpace=wrap;html=1;" vertex="1" parent="95xaMMnpDpSrJ1xNedDM-40">
          <mxGeometry x="130" y="50" width="10" height="30" as="geometry" />
        </mxCell>
        <mxCell id="95xaMMnpDpSrJ1xNedDM-28" style="edgeStyle=orthogonalEdgeStyle;rounded=0;orthogonalLoop=1;jettySize=auto;html=1;exitX=1.21;exitY=0.105;exitDx=0;exitDy=0;entryX=0;entryY=0.5;entryDx=0;entryDy=0;exitPerimeter=0;" edge="1" parent="95xaMMnpDpSrJ1xNedDM-40" source="95xaMMnpDpSrJ1xNedDM-11" target="95xaMMnpDpSrJ1xNedDM-13">
          <mxGeometry relative="1" as="geometry" />
        </mxCell>
        <mxCell id="95xaMMnpDpSrJ1xNedDM-32" value="IniciarSesion" style="edgeLabel;html=1;align=center;verticalAlign=middle;resizable=0;points=[];" connectable="0" vertex="1" parent="95xaMMnpDpSrJ1xNedDM-28">
          <mxGeometry x="-0.3568" y="1" relative="1" as="geometry">
            <mxPoint x="16" as="offset" />
          </mxGeometry>
        </mxCell>
        <mxCell id="95xaMMnpDpSrJ1xNedDM-16" value=":CatalogoParticipantes" style="rounded=0;whiteSpace=wrap;html=1;fontSize=10;" vertex="1" parent="95xaMMnpDpSrJ1xNedDM-40">
          <mxGeometry x="290" y="5" width="120" height="30" as="geometry" />
        </mxCell>
        <mxCell id="95xaMMnpDpSrJ1xNedDM-17" value=":VistaParticipante" style="rounded=0;whiteSpace=wrap;html=1;fontSize=10;" vertex="1" parent="95xaMMnpDpSrJ1xNedDM-40">
          <mxGeometry x="510" y="5" width="120" height="30" as="geometry" />
        </mxCell>
        <mxCell id="95xaMMnpDpSrJ1xNedDM-30" style="edgeStyle=orthogonalEdgeStyle;rounded=0;orthogonalLoop=1;jettySize=auto;html=1;" edge="1" parent="95xaMMnpDpSrJ1xNedDM-40" source="95xaMMnpDpSrJ1xNedDM-19">
          <mxGeometry relative="1" as="geometry">
            <mxPoint x="570" y="125" as="targetPoint" />
          </mxGeometry>
        </mxCell>
        <mxCell id="95xaMMnpDpSrJ1xNedDM-38" value="VerInformacionParticipante()" style="edgeLabel;html=1;align=center;verticalAlign=middle;resizable=0;points=[];" connectable="0" vertex="1" parent="95xaMMnpDpSrJ1xNedDM-30">
          <mxGeometry x="-0.0843" y="1" relative="1" as="geometry">
            <mxPoint as="offset" />
          </mxGeometry>
        </mxCell>
        <mxCell id="95xaMMnpDpSrJ1xNedDM-19" value="" style="rounded=0;whiteSpace=wrap;html=1;" vertex="1" parent="95xaMMnpDpSrJ1xNedDM-40">
          <mxGeometry x="345" y="110" width="10" height="30" as="geometry" />
        </mxCell>
        <mxCell id="95xaMMnpDpSrJ1xNedDM-31" style="edgeStyle=orthogonalEdgeStyle;rounded=0;orthogonalLoop=1;jettySize=auto;html=1;exitX=0;exitY=0.5;exitDx=0;exitDy=0;" edge="1" parent="95xaMMnpDpSrJ1xNedDM-40" source="95xaMMnpDpSrJ1xNedDM-20">
          <mxGeometry relative="1" as="geometry">
            <mxPoint x="350" y="165" as="targetPoint" />
          </mxGeometry>
        </mxCell>
        <mxCell id="95xaMMnpDpSrJ1xNedDM-39" value="Volver()" style="edgeLabel;html=1;align=center;verticalAlign=middle;resizable=0;points=[];" connectable="0" vertex="1" parent="95xaMMnpDpSrJ1xNedDM-31">
          <mxGeometry x="0.0252" y="-1" relative="1" as="geometry">
            <mxPoint as="offset" />
          </mxGeometry>
        </mxCell>
        <mxCell id="95xaMMnpDpSrJ1xNedDM-20" value="" style="rounded=0;whiteSpace=wrap;html=1;" vertex="1" parent="95xaMMnpDpSrJ1xNedDM-40">
          <mxGeometry x="565" y="150" width="10" height="30" as="geometry" />
        </mxCell>
        <mxCell id="95xaMMnpDpSrJ1xNedDM-6" value="Crear un Torneo" style="text;html=1;strokeColor=none;fillColor=none;align=center;verticalAlign=middle;whiteSpace=wrap;rounded=0;strokeWidth=1;fontStyle=1;fontSize=18;" vertex="1" parent="1">
          <mxGeometry x="20" y="380" width="190" height="40" as="geometry" />
        </mxCell>
        <mxCell id="95xaMMnpDpSrJ1xNedDM-62" value="Flujo Normal" style="text;html=1;strokeColor=none;fillColor=none;align=center;verticalAlign=middle;whiteSpace=wrap;rounded=0;strokeWidth=1;fontStyle=0;fontSize=17;" vertex="1" parent="1">
          <mxGeometry x="40" y="780" width="160" height="30" as="geometry" />
        </mxCell>
        <mxCell id="95xaMMnpDpSrJ1xNedDM-92" value="Diagrama de Secuencia" style="text;html=1;strokeColor=none;fillColor=none;align=center;verticalAlign=middle;whiteSpace=wrap;rounded=0;strokeWidth=1;fontStyle=0;fontSize=14;" vertex="1" parent="1">
          <mxGeometry x="40" y="720" width="160" height="30" as="geometry" />
        </mxCell>
        <mxCell id="95xaMMnpDpSrJ1xNedDM-117" value="Salir de un Torneo" style="text;html=1;strokeColor=none;fillColor=none;align=center;verticalAlign=middle;whiteSpace=wrap;rounded=0;strokeWidth=1;fontStyle=1;fontSize=18;" vertex="1" parent="1">
          <mxGeometry x="30" y="740" width="190" height="40" as="geometry" />
        </mxCell>
        <mxCell id="95xaMMnpDpSrJ1xNedDM-118" value="Flujo Normal" style="text;html=1;strokeColor=none;fillColor=none;align=center;verticalAlign=middle;whiteSpace=wrap;rounded=0;strokeWidth=1;fontStyle=0;fontSize=17;" vertex="1" parent="1">
          <mxGeometry x="40" y="420" width="160" height="30" as="geometry" />
        </mxCell>
        <mxCell id="95xaMMnpDpSrJ1xNedDM-119" value="" style="group" connectable="0" vertex="1" parent="1">
          <mxGeometry x="80" y="480" width="530" height="200" as="geometry" />
        </mxCell>
        <mxCell id="95xaMMnpDpSrJ1xNedDM-64" style="edgeStyle=orthogonalEdgeStyle;rounded=0;orthogonalLoop=1;jettySize=auto;html=1;dashed=1;endArrow=none;endFill=0;" edge="1" parent="95xaMMnpDpSrJ1xNedDM-119" source="95xaMMnpDpSrJ1xNedDM-82">
          <mxGeometry relative="1" as="geometry">
            <mxPoint x="469.6600000000001" y="200" as="targetPoint" />
            <mxPoint x="469.6600000000001" y="35" as="sourcePoint" />
          </mxGeometry>
        </mxCell>
        <mxCell id="95xaMMnpDpSrJ1xNedDM-65" style="edgeStyle=orthogonalEdgeStyle;rounded=0;orthogonalLoop=1;jettySize=auto;html=1;dashed=1;endArrow=none;endFill=0;" edge="1" parent="95xaMMnpDpSrJ1xNedDM-119" source="95xaMMnpDpSrJ1xNedDM-79">
          <mxGeometry relative="1" as="geometry">
            <mxPoint x="310" y="200" as="targetPoint" />
            <mxPoint x="310" y="35" as="sourcePoint" />
          </mxGeometry>
        </mxCell>
        <mxCell id="95xaMMnpDpSrJ1xNedDM-66" value="" style="shape=umlActor;verticalLabelPosition=bottom;verticalAlign=top;html=1;outlineConnect=0;container=0;" vertex="1" parent="95xaMMnpDpSrJ1xNedDM-119">
          <mxGeometry width="20" height="40" as="geometry" />
        </mxCell>
        <mxCell id="95xaMMnpDpSrJ1xNedDM-67" value="" style="rounded=0;whiteSpace=wrap;html=1;container=0;" vertex="1" parent="95xaMMnpDpSrJ1xNedDM-119">
          <mxGeometry x="5" y="50" width="10" height="150" as="geometry" />
        </mxCell>
        <mxCell id="95xaMMnpDpSrJ1xNedDM-68" style="edgeStyle=orthogonalEdgeStyle;rounded=0;orthogonalLoop=1;jettySize=auto;html=1;dashed=1;endArrow=none;endFill=0;" edge="1" parent="95xaMMnpDpSrJ1xNedDM-119" source="95xaMMnpDpSrJ1xNedDM-69">
          <mxGeometry relative="1" as="geometry">
            <mxPoint x="135" y="200" as="targetPoint" />
          </mxGeometry>
        </mxCell>
        <mxCell id="95xaMMnpDpSrJ1xNedDM-69" value=":PantallaInicioAdministradorIH" style="rounded=0;whiteSpace=wrap;html=1;fontSize=10;container=0;" vertex="1" parent="95xaMMnpDpSrJ1xNedDM-119">
          <mxGeometry x="60" y="5" width="150" height="30" as="geometry" />
        </mxCell>
        <mxCell id="95xaMMnpDpSrJ1xNedDM-70" style="edgeStyle=orthogonalEdgeStyle;rounded=0;orthogonalLoop=1;jettySize=auto;html=1;" edge="1" parent="95xaMMnpDpSrJ1xNedDM-119" source="95xaMMnpDpSrJ1xNedDM-72">
          <mxGeometry relative="1" as="geometry">
            <mxPoint x="310" y="65" as="targetPoint" />
          </mxGeometry>
        </mxCell>
        <mxCell id="95xaMMnpDpSrJ1xNedDM-71" value="VerTorneos()" style="edgeLabel;html=1;align=center;verticalAlign=middle;resizable=0;points=[];container=0;" connectable="0" vertex="1" parent="95xaMMnpDpSrJ1xNedDM-70">
          <mxGeometry x="-0.0028" y="-1" relative="1" as="geometry">
            <mxPoint y="-2" as="offset" />
          </mxGeometry>
        </mxCell>
        <mxCell id="95xaMMnpDpSrJ1xNedDM-72" value="" style="rounded=0;whiteSpace=wrap;html=1;container=0;" vertex="1" parent="95xaMMnpDpSrJ1xNedDM-119">
          <mxGeometry x="130" y="50" width="10" height="30" as="geometry" />
        </mxCell>
        <mxCell id="95xaMMnpDpSrJ1xNedDM-73" style="edgeStyle=orthogonalEdgeStyle;rounded=0;orthogonalLoop=1;jettySize=auto;html=1;exitX=1.21;exitY=0.105;exitDx=0;exitDy=0;entryX=0;entryY=0.5;entryDx=0;entryDy=0;exitPerimeter=0;" edge="1" parent="95xaMMnpDpSrJ1xNedDM-119" source="95xaMMnpDpSrJ1xNedDM-67" target="95xaMMnpDpSrJ1xNedDM-72">
          <mxGeometry relative="1" as="geometry" />
        </mxCell>
        <mxCell id="95xaMMnpDpSrJ1xNedDM-74" value="IniciarSesion" style="edgeLabel;html=1;align=center;verticalAlign=middle;resizable=0;points=[];container=0;" connectable="0" vertex="1" parent="95xaMMnpDpSrJ1xNedDM-73">
          <mxGeometry x="-0.3568" y="1" relative="1" as="geometry">
            <mxPoint x="16" as="offset" />
          </mxGeometry>
        </mxCell>
        <mxCell id="95xaMMnpDpSrJ1xNedDM-75" value=":CRUDTorneos" style="rounded=0;whiteSpace=wrap;html=1;fontSize=10;container=0;" vertex="1" parent="95xaMMnpDpSrJ1xNedDM-119">
          <mxGeometry x="250" y="5" width="120" height="30" as="geometry" />
        </mxCell>
        <mxCell id="95xaMMnpDpSrJ1xNedDM-76" value=":VistaCrearTorneo" style="rounded=0;whiteSpace=wrap;html=1;fontSize=10;container=0;" vertex="1" parent="95xaMMnpDpSrJ1xNedDM-119">
          <mxGeometry x="410" y="5" width="120" height="30" as="geometry" />
        </mxCell>
        <mxCell id="95xaMMnpDpSrJ1xNedDM-77" style="edgeStyle=orthogonalEdgeStyle;rounded=0;orthogonalLoop=1;jettySize=auto;html=1;" edge="1" parent="95xaMMnpDpSrJ1xNedDM-119" source="95xaMMnpDpSrJ1xNedDM-79">
          <mxGeometry relative="1" as="geometry">
            <mxPoint x="470" y="85" as="targetPoint" />
          </mxGeometry>
        </mxCell>
        <mxCell id="95xaMMnpDpSrJ1xNedDM-78" value="CrearTorneo()" style="edgeLabel;html=1;align=center;verticalAlign=middle;resizable=0;points=[];container=0;" connectable="0" vertex="1" parent="95xaMMnpDpSrJ1xNedDM-77">
          <mxGeometry x="-0.0843" y="1" relative="1" as="geometry">
            <mxPoint as="offset" />
          </mxGeometry>
        </mxCell>
        <mxCell id="95xaMMnpDpSrJ1xNedDM-83" value="" style="edgeStyle=orthogonalEdgeStyle;rounded=0;orthogonalLoop=1;jettySize=auto;html=1;dashed=1;endArrow=none;endFill=0;" edge="1" parent="95xaMMnpDpSrJ1xNedDM-119" target="95xaMMnpDpSrJ1xNedDM-79">
          <mxGeometry relative="1" as="geometry">
            <mxPoint x="310" y="200" as="targetPoint" />
            <mxPoint x="310" y="35" as="sourcePoint" />
          </mxGeometry>
        </mxCell>
        <mxCell id="95xaMMnpDpSrJ1xNedDM-79" value="" style="rounded=0;whiteSpace=wrap;html=1;container=0;" vertex="1" parent="95xaMMnpDpSrJ1xNedDM-119">
          <mxGeometry x="305" y="70" width="10" height="30" as="geometry" />
        </mxCell>
        <mxCell id="95xaMMnpDpSrJ1xNedDM-85" value="" style="edgeStyle=orthogonalEdgeStyle;rounded=0;orthogonalLoop=1;jettySize=auto;html=1;dashed=1;endArrow=none;endFill=0;" edge="1" parent="95xaMMnpDpSrJ1xNedDM-119" target="95xaMMnpDpSrJ1xNedDM-82">
          <mxGeometry relative="1" as="geometry">
            <mxPoint x="469.6600000000001" y="200" as="targetPoint" />
            <mxPoint x="469.6600000000001" y="35" as="sourcePoint" />
          </mxGeometry>
        </mxCell>
        <mxCell id="95xaMMnpDpSrJ1xNedDM-88" style="edgeStyle=orthogonalEdgeStyle;rounded=0;orthogonalLoop=1;jettySize=auto;html=1;exitX=0;exitY=0.75;exitDx=0;exitDy=0;" edge="1" parent="95xaMMnpDpSrJ1xNedDM-119" source="95xaMMnpDpSrJ1xNedDM-82">
          <mxGeometry relative="1" as="geometry">
            <mxPoint x="310" y="158" as="targetPoint" />
          </mxGeometry>
        </mxCell>
        <mxCell id="95xaMMnpDpSrJ1xNedDM-90" value="Cancelar()" style="edgeLabel;html=1;align=center;verticalAlign=middle;resizable=0;points=[];" connectable="0" vertex="1" parent="95xaMMnpDpSrJ1xNedDM-88">
          <mxGeometry x="0.0082" relative="1" as="geometry">
            <mxPoint as="offset" />
          </mxGeometry>
        </mxCell>
        <mxCell id="95xaMMnpDpSrJ1xNedDM-82" value="" style="rounded=0;whiteSpace=wrap;html=1;container=0;" vertex="1" parent="95xaMMnpDpSrJ1xNedDM-119">
          <mxGeometry x="465" y="120" width="10" height="50" as="geometry" />
        </mxCell>
        <mxCell id="95xaMMnpDpSrJ1xNedDM-120" value="" style="group" connectable="0" vertex="1" parent="1">
          <mxGeometry x="80" y="840" width="530" height="200" as="geometry" />
        </mxCell>
        <mxCell id="95xaMMnpDpSrJ1xNedDM-94" style="edgeStyle=orthogonalEdgeStyle;rounded=0;orthogonalLoop=1;jettySize=auto;html=1;dashed=1;endArrow=none;endFill=0;" edge="1" parent="95xaMMnpDpSrJ1xNedDM-120" source="95xaMMnpDpSrJ1xNedDM-116">
          <mxGeometry relative="1" as="geometry">
            <mxPoint x="469.6600000000001" y="200" as="targetPoint" />
            <mxPoint x="469.6600000000001" y="35" as="sourcePoint" />
          </mxGeometry>
        </mxCell>
        <mxCell id="95xaMMnpDpSrJ1xNedDM-95" style="edgeStyle=orthogonalEdgeStyle;rounded=0;orthogonalLoop=1;jettySize=auto;html=1;dashed=1;endArrow=none;endFill=0;" edge="1" parent="95xaMMnpDpSrJ1xNedDM-120" source="95xaMMnpDpSrJ1xNedDM-110">
          <mxGeometry relative="1" as="geometry">
            <mxPoint x="310" y="200" as="targetPoint" />
            <mxPoint x="310" y="35" as="sourcePoint" />
          </mxGeometry>
        </mxCell>
        <mxCell id="95xaMMnpDpSrJ1xNedDM-96" value="" style="shape=umlActor;verticalLabelPosition=bottom;verticalAlign=top;html=1;outlineConnect=0;container=0;" vertex="1" parent="95xaMMnpDpSrJ1xNedDM-120">
          <mxGeometry width="20" height="40" as="geometry" />
        </mxCell>
        <mxCell id="95xaMMnpDpSrJ1xNedDM-97" value="" style="rounded=0;whiteSpace=wrap;html=1;container=0;" vertex="1" parent="95xaMMnpDpSrJ1xNedDM-120">
          <mxGeometry x="5" y="50" width="10" height="150" as="geometry" />
        </mxCell>
        <mxCell id="95xaMMnpDpSrJ1xNedDM-98" style="edgeStyle=orthogonalEdgeStyle;rounded=0;orthogonalLoop=1;jettySize=auto;html=1;dashed=1;endArrow=none;endFill=0;" edge="1" parent="95xaMMnpDpSrJ1xNedDM-120" source="95xaMMnpDpSrJ1xNedDM-99">
          <mxGeometry relative="1" as="geometry">
            <mxPoint x="135" y="200" as="targetPoint" />
          </mxGeometry>
        </mxCell>
        <mxCell id="95xaMMnpDpSrJ1xNedDM-99" value=":PantallaInicioParticipanteIH" style="rounded=0;whiteSpace=wrap;html=1;fontSize=10;container=0;" vertex="1" parent="95xaMMnpDpSrJ1xNedDM-120">
          <mxGeometry x="60" y="5" width="150" height="30" as="geometry" />
        </mxCell>
        <mxCell id="95xaMMnpDpSrJ1xNedDM-100" style="edgeStyle=orthogonalEdgeStyle;rounded=0;orthogonalLoop=1;jettySize=auto;html=1;" edge="1" parent="95xaMMnpDpSrJ1xNedDM-120" source="95xaMMnpDpSrJ1xNedDM-102">
          <mxGeometry relative="1" as="geometry">
            <mxPoint x="310" y="65" as="targetPoint" />
          </mxGeometry>
        </mxCell>
        <mxCell id="95xaMMnpDpSrJ1xNedDM-101" value="BuscarTorneos()" style="edgeLabel;html=1;align=center;verticalAlign=middle;resizable=0;points=[];container=0;" connectable="0" vertex="1" parent="95xaMMnpDpSrJ1xNedDM-100">
          <mxGeometry x="-0.0028" y="-1" relative="1" as="geometry">
            <mxPoint y="-2" as="offset" />
          </mxGeometry>
        </mxCell>
        <mxCell id="95xaMMnpDpSrJ1xNedDM-102" value="" style="rounded=0;whiteSpace=wrap;html=1;container=0;" vertex="1" parent="95xaMMnpDpSrJ1xNedDM-120">
          <mxGeometry x="130" y="50" width="10" height="30" as="geometry" />
        </mxCell>
        <mxCell id="95xaMMnpDpSrJ1xNedDM-103" style="edgeStyle=orthogonalEdgeStyle;rounded=0;orthogonalLoop=1;jettySize=auto;html=1;exitX=1.21;exitY=0.105;exitDx=0;exitDy=0;entryX=0;entryY=0.5;entryDx=0;entryDy=0;exitPerimeter=0;" edge="1" parent="95xaMMnpDpSrJ1xNedDM-120" source="95xaMMnpDpSrJ1xNedDM-97" target="95xaMMnpDpSrJ1xNedDM-102">
          <mxGeometry relative="1" as="geometry" />
        </mxCell>
        <mxCell id="95xaMMnpDpSrJ1xNedDM-104" value="IniciarSesion" style="edgeLabel;html=1;align=center;verticalAlign=middle;resizable=0;points=[];container=0;" connectable="0" vertex="1" parent="95xaMMnpDpSrJ1xNedDM-103">
          <mxGeometry x="-0.3568" y="1" relative="1" as="geometry">
            <mxPoint x="16" as="offset" />
          </mxGeometry>
        </mxCell>
        <mxCell id="95xaMMnpDpSrJ1xNedDM-105" value=":EntrarTorneo" style="rounded=0;whiteSpace=wrap;html=1;fontSize=10;container=0;" vertex="1" parent="95xaMMnpDpSrJ1xNedDM-120">
          <mxGeometry x="250" y="5" width="120" height="30" as="geometry" />
        </mxCell>
        <mxCell id="95xaMMnpDpSrJ1xNedDM-106" value=":EntrarTorneo" style="rounded=0;whiteSpace=wrap;html=1;fontSize=10;container=0;" vertex="1" parent="95xaMMnpDpSrJ1xNedDM-120">
          <mxGeometry x="410" y="5" width="120" height="30" as="geometry" />
        </mxCell>
        <mxCell id="95xaMMnpDpSrJ1xNedDM-107" style="edgeStyle=orthogonalEdgeStyle;rounded=0;orthogonalLoop=1;jettySize=auto;html=1;" edge="1" parent="95xaMMnpDpSrJ1xNedDM-120" source="95xaMMnpDpSrJ1xNedDM-110">
          <mxGeometry relative="1" as="geometry">
            <mxPoint x="470" y="85" as="targetPoint" />
          </mxGeometry>
        </mxCell>
        <mxCell id="95xaMMnpDpSrJ1xNedDM-108" value="SalirTorneo()" style="edgeLabel;html=1;align=center;verticalAlign=middle;resizable=0;points=[];container=0;" connectable="0" vertex="1" parent="95xaMMnpDpSrJ1xNedDM-107">
          <mxGeometry x="-0.0843" y="1" relative="1" as="geometry">
            <mxPoint as="offset" />
          </mxGeometry>
        </mxCell>
        <mxCell id="95xaMMnpDpSrJ1xNedDM-109" value="" style="edgeStyle=orthogonalEdgeStyle;rounded=0;orthogonalLoop=1;jettySize=auto;html=1;dashed=1;endArrow=none;endFill=0;" edge="1" parent="95xaMMnpDpSrJ1xNedDM-120" target="95xaMMnpDpSrJ1xNedDM-110">
          <mxGeometry relative="1" as="geometry">
            <mxPoint x="310" y="200" as="targetPoint" />
            <mxPoint x="310" y="35" as="sourcePoint" />
          </mxGeometry>
        </mxCell>
        <mxCell id="95xaMMnpDpSrJ1xNedDM-110" value="" style="rounded=0;whiteSpace=wrap;html=1;container=0;" vertex="1" parent="95xaMMnpDpSrJ1xNedDM-120">
          <mxGeometry x="305" y="70" width="10" height="30" as="geometry" />
        </mxCell>
        <mxCell id="95xaMMnpDpSrJ1xNedDM-111" value="" style="edgeStyle=orthogonalEdgeStyle;rounded=0;orthogonalLoop=1;jettySize=auto;html=1;dashed=1;endArrow=none;endFill=0;" edge="1" parent="95xaMMnpDpSrJ1xNedDM-120" target="95xaMMnpDpSrJ1xNedDM-116">
          <mxGeometry relative="1" as="geometry">
            <mxPoint x="469.6600000000001" y="200" as="targetPoint" />
            <mxPoint x="469.6600000000001" y="35" as="sourcePoint" />
          </mxGeometry>
        </mxCell>
        <mxCell id="95xaMMnpDpSrJ1xNedDM-114" style="edgeStyle=orthogonalEdgeStyle;rounded=0;orthogonalLoop=1;jettySize=auto;html=1;exitX=0;exitY=0.75;exitDx=0;exitDy=0;" edge="1" parent="95xaMMnpDpSrJ1xNedDM-120" source="95xaMMnpDpSrJ1xNedDM-116">
          <mxGeometry relative="1" as="geometry">
            <mxPoint x="310" y="160" as="targetPoint" />
          </mxGeometry>
        </mxCell>
        <mxCell id="95xaMMnpDpSrJ1xNedDM-115" value="Cancelar()" style="edgeLabel;html=1;align=center;verticalAlign=middle;resizable=0;points=[];" connectable="0" vertex="1" parent="95xaMMnpDpSrJ1xNedDM-114">
          <mxGeometry x="0.0082" relative="1" as="geometry">
            <mxPoint as="offset" />
          </mxGeometry>
        </mxCell>
        <mxCell id="3WdDlvFgGQzuwjE55F2x-17" style="edgeStyle=orthogonalEdgeStyle;rounded=0;orthogonalLoop=1;jettySize=auto;html=1;exitX=1;exitY=0.25;exitDx=0;exitDy=0;" edge="1" parent="95xaMMnpDpSrJ1xNedDM-120" source="95xaMMnpDpSrJ1xNedDM-116">
          <mxGeometry relative="1" as="geometry">
            <mxPoint x="640" y="133" as="targetPoint" />
          </mxGeometry>
        </mxCell>
        <mxCell id="3WdDlvFgGQzuwjE55F2x-18" value="SalirTorneo()" style="edgeLabel;html=1;align=center;verticalAlign=middle;resizable=0;points=[];" connectable="0" vertex="1" parent="3WdDlvFgGQzuwjE55F2x-17">
          <mxGeometry relative="1" as="geometry">
            <mxPoint as="offset" />
          </mxGeometry>
        </mxCell>
        <mxCell id="95xaMMnpDpSrJ1xNedDM-116" value="" style="rounded=0;whiteSpace=wrap;html=1;container=0;" vertex="1" parent="95xaMMnpDpSrJ1xNedDM-120">
          <mxGeometry x="465" y="120" width="10" height="50" as="geometry" />
        </mxCell>
        <mxCell id="3WdDlvFgGQzuwjE55F2x-1" style="edgeStyle=orthogonalEdgeStyle;rounded=0;orthogonalLoop=1;jettySize=auto;html=1;dashed=1;endArrow=none;endFill=0;" edge="1" parent="1" source="3WdDlvFgGQzuwjE55F2x-5">
          <mxGeometry relative="1" as="geometry">
            <mxPoint x="718.6600000000001" y="680" as="targetPoint" />
            <mxPoint x="718.6600000000001" y="515" as="sourcePoint" />
          </mxGeometry>
        </mxCell>
        <mxCell id="3WdDlvFgGQzuwjE55F2x-2" value="&lt;span style=&quot;color: rgb(0, 0, 0); font-family: Helvetica; font-size: 10px; font-style: normal; font-variant-ligatures: normal; font-variant-caps: normal; font-weight: 400; letter-spacing: normal; orphans: 2; text-align: center; text-indent: 0px; text-transform: none; widows: 2; word-spacing: 0px; -webkit-text-stroke-width: 0px; background-color: rgb(251, 251, 251); text-decoration-thickness: initial; text-decoration-style: initial; text-decoration-color: initial; float: none; display: inline !important;&quot;&gt;:BDTorneos&lt;/span&gt;" style="rounded=0;whiteSpace=wrap;html=1;fontSize=10;container=0;" vertex="1" parent="1">
          <mxGeometry x="659" y="485" width="120" height="30" as="geometry" />
        </mxCell>
        <mxCell id="3WdDlvFgGQzuwjE55F2x-3" value="" style="edgeStyle=orthogonalEdgeStyle;rounded=0;orthogonalLoop=1;jettySize=auto;html=1;dashed=1;endArrow=none;endFill=0;" edge="1" parent="1" target="3WdDlvFgGQzuwjE55F2x-5">
          <mxGeometry relative="1" as="geometry">
            <mxPoint x="718.6600000000001" y="680" as="targetPoint" />
            <mxPoint x="718.6600000000001" y="515" as="sourcePoint" />
          </mxGeometry>
        </mxCell>
        <mxCell id="3WdDlvFgGQzuwjE55F2x-10" style="edgeStyle=orthogonalEdgeStyle;rounded=0;orthogonalLoop=1;jettySize=auto;html=1;dashed=1;" edge="1" parent="1" source="3WdDlvFgGQzuwjE55F2x-5">
          <mxGeometry relative="1" as="geometry">
            <mxPoint x="390" y="670" as="targetPoint" />
            <Array as="points">
              <mxPoint x="553" y="670" />
              <mxPoint x="553" y="671" />
            </Array>
          </mxGeometry>
        </mxCell>
        <mxCell id="3WdDlvFgGQzuwjE55F2x-11" value="CreaTorneo()" style="edgeLabel;html=1;align=center;verticalAlign=middle;resizable=0;points=[];" connectable="0" vertex="1" parent="3WdDlvFgGQzuwjE55F2x-10">
          <mxGeometry x="-0.2369" y="3" relative="1" as="geometry">
            <mxPoint as="offset" />
          </mxGeometry>
        </mxCell>
        <mxCell id="3WdDlvFgGQzuwjE55F2x-5" value="" style="rounded=0;whiteSpace=wrap;html=1;container=0;" vertex="1" parent="1">
          <mxGeometry x="714" y="625" width="10" height="50" as="geometry" />
        </mxCell>
        <mxCell id="3WdDlvFgGQzuwjE55F2x-7" style="edgeStyle=orthogonalEdgeStyle;rounded=0;orthogonalLoop=1;jettySize=auto;html=1;exitX=1;exitY=0.25;exitDx=0;exitDy=0;" edge="1" parent="1">
          <mxGeometry relative="1" as="geometry">
            <mxPoint x="555" y="611.5" as="sourcePoint" />
            <mxPoint x="719" y="612" as="targetPoint" />
          </mxGeometry>
        </mxCell>
        <mxCell id="3WdDlvFgGQzuwjE55F2x-8" value="CreaTorneo(Torneo)" style="edgeLabel;html=1;align=center;verticalAlign=middle;resizable=0;points=[];" connectable="0" vertex="1" parent="1">
          <mxGeometry x="630" y="625" as="geometry" />
        </mxCell>
        <mxCell id="3WdDlvFgGQzuwjE55F2x-13" value=":BDTorneos" style="rounded=0;whiteSpace=wrap;html=1;fontSize=10;container=0;" vertex="1" parent="1">
          <mxGeometry x="659" y="845" width="120" height="30" as="geometry" />
        </mxCell>
        <mxCell id="3WdDlvFgGQzuwjE55F2x-14" value="" style="edgeStyle=orthogonalEdgeStyle;rounded=0;orthogonalLoop=1;jettySize=auto;html=1;dashed=1;endArrow=none;endFill=0;" edge="1" parent="1" target="3WdDlvFgGQzuwjE55F2x-15">
          <mxGeometry relative="1" as="geometry">
            <mxPoint x="718.6600000000001" y="1040" as="targetPoint" />
            <mxPoint x="718.6600000000001" y="875" as="sourcePoint" />
          </mxGeometry>
        </mxCell>
        <mxCell id="3WdDlvFgGQzuwjE55F2x-19" style="edgeStyle=orthogonalEdgeStyle;rounded=0;orthogonalLoop=1;jettySize=auto;html=1;exitX=0;exitY=0.75;exitDx=0;exitDy=0;" edge="1" parent="1" source="3WdDlvFgGQzuwjE55F2x-15">
          <mxGeometry relative="1" as="geometry">
            <mxPoint x="390" y="1023" as="targetPoint" />
          </mxGeometry>
        </mxCell>
        <mxCell id="3WdDlvFgGQzuwjE55F2x-21" value="SalirTorneo()" style="edgeLabel;html=1;align=center;verticalAlign=middle;resizable=0;points=[];" connectable="0" vertex="1" parent="3WdDlvFgGQzuwjE55F2x-19">
          <mxGeometry x="-0.3292" y="-3" relative="1" as="geometry">
            <mxPoint as="offset" />
          </mxGeometry>
        </mxCell>
        <mxCell id="3WdDlvFgGQzuwjE55F2x-15" value="" style="rounded=0;whiteSpace=wrap;html=1;container=0;" vertex="1" parent="1">
          <mxGeometry x="714" y="985" width="10" height="50" as="geometry" />
        </mxCell>
      </root>
    </mxGraphModel>
  </diagram>
</mxfile>
